# xmcd
#
# Track frame offsets:
#	150
#	12953
#	17607
#	23356
#
# Disc length: 382 seconds
#
# Revision: 1
# Processed by: cddbd v1.5.1PL2 Copyright (c) Steve Scherf et al.
# Submitted via: CDmax 2.0
#
DISCID=1a017c04
DTITLE=Willie Nelson - You Don't Know Me: the Songs of Cindy Walker {Sampler}
DYEAR=2006
DGENRE=Country
TTITLE0=Bubbles in My Beer
TTITLE1=Don't be Ashamed of Your Age (snippet)
TTITLE2=You Don't Know Me (snippet)
TTITLE3=Cherokee Maiden (snippet)
EXTD=
EXTT0=
EXTT1=
EXTT2=
EXTT3=
PLAYORDER=
